<svg xmlns="http://www.w3.org/2000/svg" xmlns:xlink="http://www.w3.org/1999/xlink" version="1.1" x="0px" y="0px" viewBox="0 0 100 125" enable-background="new 0 0 100 100" xml:space="preserve"><path d="M93.4,10.3c0.7,0,1.2-0.6,1.2-1.2V5.5c0-0.7-0.6-1.2-1.2-1.2H6.6c-0.7,0-1.2,0.6-1.2,1.2v3.6c0,0.7,0.6,1.2,1.2,1.2h2.9  v77.3H6.6c-0.7,0-1.2,0.6-1.2,1.2v3.6c0,0.7,0.6,1.2,1.2,1.2h86.9c0.7,0,1.2-0.6,1.2-1.2v-3.6c0-0.7-0.6-1.2-1.2-1.2h-2.9V10.3H93.4  z M20.6,87.6h-7.8V10.3h7.8V87.6z M31.7,87.6h-7.8V10.3h7.8V87.6z M42.8,87.6H35V10.3h7.8V87.6z M53.9,87.6h-7.8V10.3h7.8V87.6z   M65,87.6h-7.8V10.3H65V87.6z M88.4,62.4c0,0.8-0.5,1.5-1.2,2v23.2h-7.8V64.9h-3.3v22.8h-7.8V64.4c-0.7-0.4-1.2-1.2-1.2-2V50  c0-0.8,0.5-1.5,1.2-2V10.3h7.8v27.4c0.5-0.1,1.1-0.2,1.6-0.2c0.6,0,1.1,0.1,1.6,0.2V10.3h7.8v37.7c0.7,0.4,1.2,1.2,1.2,2V62.4z   M77.8,44.2c0.6,0,1.1,0,1.6,0.1v2.2h-3.3v-2.2C76.6,44.3,77.2,44.2,77.8,44.2z M84.5,48.6h-0.6v-2.4c0-3.4-2.8-6.2-6.2-6.2  s-6.2,2.8-6.2,6.2v2.4H71c-1.1,0-2,0.7-2,1.6v10.7c0,0.9,0.9,1.6,2,1.6h13.5c1.1,0,2-0.7,2-1.6V50.2C86.5,49.3,85.6,48.6,84.5,48.6z   M81.8,48.6h-8v-2.4c0-2.2,1.8-4,4-4s4,1.8,4,4V48.6z"/></svg>