<svg xmlns="http://www.w3.org/2000/svg" xmlns:xlink="http://www.w3.org/1999/xlink" version="1.1" x="0px" y="0px" viewBox="0 0 90 112.5" enable-background="new 0 0 90 90" xml:space="preserve"><path d="M45,7.538c-20.657,0-37.463,16.806-37.463,37.461c0,20.658,16.806,37.464,37.463,37.464s37.463-16.807,37.463-37.464  C82.463,24.343,65.657,7.538,45,7.538z M45,75.6c-16.872,0-30.6-13.727-30.6-30.601c0-16.871,13.728-30.597,30.6-30.597  c16.873,0,30.6,13.727,30.6,30.597C75.6,61.873,61.873,75.6,45,75.6z"/><path d="M55.38,31.006c-3.471,3.472-6.942,6.943-10.413,10.415c-3.449-3.449-6.897-6.898-10.347-10.348  c-3.133-3.132-7.985,1.72-4.853,4.853c3.448,3.45,6.897,6.899,10.347,10.348c-3.449,3.449-6.898,6.898-10.347,10.348  c-3.133,3.133,1.72,7.986,4.853,4.854c3.449-3.449,6.897-6.898,10.347-10.348c3.471,3.471,6.942,6.943,10.413,10.414  c3.133,3.133,7.985-1.721,4.854-4.852c-3.472-3.473-6.943-6.943-10.414-10.416c3.471-3.472,6.942-6.943,10.414-10.415  C63.365,32.726,58.513,27.874,55.38,31.006z"/></svg>