<svg xmlns="http://www.w3.org/2000/svg" xmlns:xlink="http://www.w3.org/1999/xlink" version="1.1" x="0px" y="0px" viewBox="0 0 100 125" enable-background="new 0 0 100 100" xml:space="preserve"><g><path fill="#000000" d="M50,91C27.393,91,9,72.607,9,50S27.393,9,50,9s41,18.393,41,41S72.607,91,50,91z M50,16   c-18.748,0-34,15.252-34,34c0,18.748,15.252,34,34,34c18.748,0,34-15.252,34-34C84,31.252,68.748,16,50,16z"/></g><g><path fill="#000000" d="M61.5,53.5h-23c-1.933,0-3.5-1.567-3.5-3.5c0-1.933,1.567-3.5,3.5-3.5h23c1.933,0,3.5,1.567,3.5,3.5   C65,51.933,63.433,53.5,61.5,53.5z"/></g></svg>